<?xml version="1.0" encoding="UTF-8" standalone="no"?>
<!-- Created with Inkscape (http://www.inkscape.org/) -->

<svg
   version="1.1"
   id="svg1"
   width="512"
   height="512"
   viewBox="0 0 512 512"
   xmlns="http://www.w3.org/2000/svg"
   xmlns:svg="http://www.w3.org/2000/svg">
  <defs
     id="defs1" />
  <g
     id="g1"
     style="display:inline">
    <path
       style="fill:#030303;stroke:none"
       d="m 1,1 c 9.141871,67.889465 46.555199,130.38718 93.039352,179 18.223188,19.05768 37.315198,37.35455 55.960648,56 4.12279,4.1228 17.94444,13.87662 17.94444,20 0,4.02936 -6.36592,8.42148 -8.94444,11 -8.0107,8.01068 -17.47,15.72992 -24,25 h -1 c -3.45369,-4.90289 -14.58547,-19.79321 -21,-19.79321 -4.59761,0 -10.05921,7.79242 -12.98534,10.79321 C 85.937241,297.43668 79,315.02008 79,335 c 0,7.40244 6.399727,24.29944 2.588737,30 C 74.91317,374.98541 63.491245,383.50876 55,392 L 0,447 v 1 l 47,47 c 3.681232,3.68124 11.411186,14.79321 17,14.79321 6.684914,0 17.48687,-15.28009 22,-19.79321 l 41,-41 c 6.29819,-6.29819 12.50687,-14.41473 19.83025,-19.49768 3.86905,-2.68539 9.11955,0.61096 13.16975,1.59955 8.02122,1.95782 16.786,2.62066 25,1.61188 C 209.3232,429.7265 224.34201,415.65799 241,399 v -1 l -21,-20 v -1 l 25,-24 11,-8.94446 11,8.94446 25,24 v 1 l -21,20 v 1 c 16.65796,16.65799 31.67682,30.7265 56,33.71375 8.21402,1.00878 16.97876,0.34594 25,-1.61188 4.03717,-0.98541 9.44531,-4.3339 13.28549,-1.59955 C 387.5282,445.33987 406.66498,470.66498 426,490 c 4.51315,4.51315 15.31509,19.79321 22,19.79321 5.58887,0 13.31876,-11.11197 17,-14.79321 l 47,-47 v -1 L 457,392 C 448.50879,383.50879 437.08682,374.98538 430.41125,365 426.60028,359.2995 433,342.4024 433,335 c 0,-19.91229 -6.98758,-37.61493 -21.01465,-52 -2.92612,-3.00079 -8.38772,-10.79321 -12.98535,-10.79321 -6.41455,0 -17.54633,14.89032 -21,19.79321 h -1 c -6.53,-9.27008 -15.98932,-16.98932 -24,-25 -2.57855,-2.57855 -8.94443,-6.97061 -8.94443,-11 0,-6.33682 14.6576,-16.71317 18.94443,-21 18.64548,-18.64548 37.73749,-36.94226 55.96063,-56 C 465.03217,130.81848 501.94244,68.207581 511,1 497.74771,2.0823975 483.77115,6.9342651 471,10.578705 419.07605,25.395966 372.09949,53.900513 334,92 l -57,57 c -4.28683,4.28683 -14.66315,18.94443 -21,18.94443 -6.33684,0 -16.71315,-14.6576 -21,-18.94443 L 178,92 C 139.84854,53.848541 92.986526,25.413818 41,10.578705 28.228865,6.9342651 14.252298,2.0823975 1,1 m 43,42 c 63.9585,20.811218 108.5829,65.58289 155,112 l 24,24 c 3.06454,3.06454 8.37099,6.78149 9.82407,11 1.48716,4.31744 -4.21331,8.38385 -6.82407,11 l -23,23 c -2.66528,2.6651 -6.17473,7.70071 -10,8.65433 -4.41586,1.10083 -9.32382,-5.97834 -12,-8.65433 L 150,193 C 116.3689,159.3689 81.825363,127.12918 60.246914,84 54.907082,73.327209 42.889595,55.197205 44,43 m 425,0 C 447.32632,109.49652 400.18835,154.81165 352,203 L 199,356 c -12.20465,-8.59714 -22.44724,-21.44656 -33,-32 -2.67598,-2.67615 -9.75516,-7.58417 -8.65433,-12 1.80231,-7.22968 14.47235,-15.81802 19.65433,-21 L 230,238 334,134 C 371.52817,96.471832 415.37415,55.412018 469,43 m -148,234 25,25 8.79321,11 L 345,325 314,356 h -1 l -24,-24 c -2.9043,-2.9043 -8.61813,-6.84344 -9.65433,-11 -1.10083,-4.41589 5.97834,-9.32382 8.65433,-12 10.55276,-10.55344 20.79538,-23.40289 33,-32 M 197,398 C 173.10442,410.59134 154.94408,397.56323 138.03935,381.08951 117.89434,361.45813 101.69822,344.33929 113,315 c 10.67911,4.98004 19.71164,17.71164 28,26 18.17046,18.17047 41.2123,36.00711 56,57 m 202,-83 c 11.30414,29.34543 -5.0423,47.04999 -25,67 -16.03409,16.02789 -36.59967,28.6095 -59,16 14.78772,-20.99292 37.82956,-38.82959 56,-57 8.28839,-8.28839 17.32086,-21.0199 28,-26 m -296,73 21,21 v 1 L 65,469 H 64 L 43,448 v -1 c 19.124542,-19.12454 37.907181,-43.4375 60,-59 m 307,0 44,44 c 3.51086,3.51086 13.79321,10.64056 13.79321,16 0,5.19775 -16.60159,21.49963 -21.79321,19.16821 C 439.33109,464.17337 433.12912,455.12912 428,450 l -40,-40 v -1 z"
       id="path1" />
  </g>
</svg>
